<svg width="28" height="28" viewBox="0 0 28 28" fill="none" xmlns="http://www.w3.org/2000/svg">
<rect width="28" height="28" rx="14" fill="#30D5C8"/>
<g clip-path="url(#clip0_295_592)">
<path d="M8 11.8938C8 8.6375 10.6875 6 14 6C17.3125 6 20 8.6375 20 11.8938C20 15.6219 16.2438 20.0906 14.675 21.7937C14.3063 22.1937 13.6906 22.1937 13.3219 21.7937C11.7531 20.0906 7.99688 15.6219 7.99688 11.8938H8ZM14 14C14.5304 14 15.0391 13.7893 15.4142 13.4142C15.7893 13.0391 16 12.5304 16 12C16 11.4696 15.7893 10.9609 15.4142 10.5858C15.0391 10.2107 14.5304 10 14 10C13.4696 10 12.9609 10.2107 12.5858 10.5858C12.2107 10.9609 12 11.4696 12 12C12 12.5304 12.2107 13.0391 12.5858 13.4142C12.9609 13.7893 13.4696 14 14 14Z" fill="black"/>
</g>
<defs>
<clipPath id="clip0_295_592">
<rect width="16" height="16" fill="white" transform="translate(6 6)"/>
</clipPath>
</defs>
</svg>
